# xmcd
#
# Track frame offsets:
#	150
#	19895
#	34112
#	48467
#	62095
#	79130
#	100157
#	114762
#	132135
#	149655
#
# Disc length: 2199 seconds
#
# Revision: 1
# Processed by: cddbd v1.4PL0 Copyright (c) Steve Scherf et al.
# Submitted via: EasyCDDAExtractor 5.1.0
#
DISCID=8408950a
DTITLE=Canciones para hacer noni
DYEAR=1900
DGENRE=
TTITLE0=Aprendizaje - C. Garcia
TTITLE1=Solo le pido a Dios - L. Gieco
TTITLE2=En el pais de la libertad - L. Gieco
TTITLE3=EL tiempo es veloz - D. Lebon
TTITLE4=El oso - M. Birabent
TTITLE5=Himno de mi corazon - Los abuelos de la nada
TTITLE6=Inconciente colectivo - C. Garcia
TTITLE7=Muchacha ojos de papel - Spinetta
TTITLE8=Plegaria para un niño dormido - Spinetta
TTITLE9=Seminare - C. Garcia
EXTD=
EXTT0=
EXTT1=
EXTT2=
EXTT3=
EXTT4=
EXTT5=
EXTT6=
EXTT7=
EXTT8=
EXTT9=
PLAYORDER=
